<svg xmlns="http://www.w3.org/2000/svg" viewBox="0 0 1500 1500"><defs><style>.cls-1{fill:#00a569;}.cls-2{fill:#fff;}.cls-3{fill:none;}.cls-3,.cls-4{stroke:#afd793;stroke-miterlimit:10;stroke-width:6px;}.cls-4{fill:#afd793;}</style></defs><g id="Layer_2" data-name="Layer 2"><g id="Layer_1-2" data-name="Layer 1"><rect class="cls-1" width="1500" height="1500" rx="750"/><rect class="cls-2" x="97.12" y="100" width="1300" height="1300" rx="650"/><rect class="cls-1" x="122.12" y="126.64" width="1250" height="1250" rx="625"/><path class="cls-3" d="M594.74,678.44c-18,1.9-23.39,4.35-33.73,30.19-8.43,20.94-36.45,88.4-56.58,139.54h-15c-7.61-21.22-43-114.52-54.4-143.35-8.43-20.4-12-24.75-29.64-26.38V668.37h83l-.28,10.07c-19.85,2.72-19.85,4.62-15.5,16,8.43,22.85,28.83,78.89,38.08,102.82,16.32-38.89,31-75.89,37.27-93.57,6.8-18.77,4.89-22.85-18-25.29V668.37h64.74Z"/><path class="cls-3" d="M595,845.17v-9.24c14.68-1.91,16.32-3,16.32-22.31v-53c0-18.22-1.36-19.31-14.15-20.94v-9a297.3,297.3,0,0,0,49.23-9.79v92.75c0,18.5,1.09,20.4,16.87,22.31v9.24Zm31.82-140.89c-10.34,0-19.58-8.71-19.58-19.32,0-11.15,9.24-19.31,19.85-19.31,10.88,0,19.59,8.16,19.59,19.31A19.52,19.52,0,0,1,626.83,704.28Z"/><path class="cls-3" d="M818,845.17c-21.21-.27-39.71,0-49.77.55-.82-1.36-34-52.23-35.09-54.13-2.45-3.26-4.08-4.62-5.44-4.9a8.49,8.49,0,0,0-2.45-.27v29.11c0,17.68,1.36,18.22,16.05,20.4v9.24H674.43v-9.24c14.41-2.18,15.77-2.72,15.77-20.4v-124c0-14.69-1.36-16-15.77-19.31v-8.43c17.13-1.36,35.08-4.35,50.86-9.25v124c6.26-1.63,10.88-6.25,15.23-10.6,6.8-6.8,16.87-18.77,19.86-24.21,3.26-6-1.09-8.71-11.15-10.34v-9l58.21-2.17v8.7c-16.87,2.72-25.57,6.26-35.09,16.32-4.36,4.35-10.34,11.7-18,20.4,6.8,10.61,32.36,45.16,40,54.4,8.7,10.07,12,12.24,23.66,13.88Z"/><path class="cls-3" d="M960.84,845.17c-21.21-.27-39.71,0-49.77.55-.82-1.36-34-52.23-35.09-54.13-2.45-3.26-4.08-4.62-5.44-4.9a8.49,8.49,0,0,0-2.45-.27v29.11c0,17.68,1.36,18.22,16,20.4v9.24H817.22v-9.24c14.42-2.18,15.78-2.72,15.78-20.4v-124c0-14.69-1.36-16-15.78-19.31v-8.43c17.14-1.36,35.09-4.35,50.87-9.25v124c6.25-1.63,10.88-6.25,15.23-10.6,6.8-6.8,16.87-18.77,19.86-24.21,3.26-6-1.09-8.71-11.15-10.34v-9l58.2-2.17v8.7c-16.86,2.72-25.57,6.26-35.08,16.32-4.36,4.35-10.34,11.7-18,20.4,6.8,10.61,32.37,45.16,40,54.4,8.7,10.07,12,12.24,23.66,13.88Z"/><path class="cls-3" d="M964.65,845.17v-9.24c14.69-1.91,16.32-3,16.32-22.31v-53c0-18.22-1.36-19.31-14.15-20.94v-9a297.42,297.42,0,0,0,49.24-9.79v92.75c0,18.5,1.08,20.4,16.86,22.31v9.24Zm31.82-140.89c-10.33,0-19.58-8.71-19.58-19.32,0-11.15,9.25-19.31,19.85-19.31,10.88,0,19.59,8.16,19.59,19.31A19.52,19.52,0,0,1,996.47,704.28Z"/><path class="cls-4" d="M606.78,670.17c-17.95,1.91-23.39,4.35-33.73,30.19-8.43,20.95-36.45,88.41-56.58,139.54h-15c-7.61-21.21-43-114.51-54.4-143.34-8.43-20.4-12-24.75-29.65-26.39V660.11h83l-.28,10.06c-19.85,2.72-19.85,4.63-15.5,16.05,8.43,22.85,28.83,78.88,38.08,102.82,16.32-38.9,31-75.89,37.26-93.57,6.8-18.77,4.9-22.85-18-25.3V660.11h64.74Z"/><path class="cls-4" d="M607,836.91v-9.25c14.69-1.9,16.32-3,16.32-22.3v-53c0-18.23-1.36-19.31-14.14-21v-9a297.29,297.29,0,0,0,49.23-9.8v92.76c0,18.49,1.09,20.4,16.87,22.3v9.25ZM638.87,696c-10.34,0-19.59-8.7-19.59-19.31,0-11.15,9.25-19.31,19.86-19.31,10.88,0,19.58,8.16,19.58,19.31A19.5,19.5,0,0,1,638.87,696Z"/><path class="cls-4" d="M830.08,836.91c-21.21-.27-39.71,0-49.77.54-.82-1.36-34-52.22-35.09-54.12-2.45-3.27-4.08-4.63-5.44-4.9a8.49,8.49,0,0,0-2.45-.27v29.1c0,17.68,1.36,18.23,16,20.4v9.25H686.46v-9.25c14.42-2.17,15.78-2.72,15.78-20.4v-124c0-14.69-1.36-16.05-15.78-19.31v-8.44c17.14-1.36,35.09-4.35,50.87-9.24v124c6.26-1.63,10.88-6.26,15.23-10.61,6.8-6.8,16.87-18.77,19.86-24.21,3.26-6-1.09-8.7-11.15-10.33v-9l58.2-2.17v8.7c-16.86,2.72-25.56,6.26-35.08,16.32-4.36,4.35-10.34,11.7-18,20.4,6.8,10.61,32.37,45.15,40,54.4,8.7,10.06,12,12.24,23.66,13.87Z"/><path class="cls-4" d="M972.88,836.91c-21.22-.27-39.71,0-49.78.54-.81-1.36-34-52.22-35.08-54.12-2.45-3.27-4.08-4.63-5.44-4.9a8.49,8.49,0,0,0-2.45-.27v29.1c0,17.68,1.36,18.23,16,20.4v9.25H829.26v-9.25c14.42-2.17,15.78-2.72,15.78-20.4v-124c0-14.69-1.36-16.05-15.78-19.31v-8.44c17.14-1.36,35.09-4.35,50.87-9.24v124c6.25-1.63,10.88-6.26,15.23-10.61,6.8-6.8,16.86-18.77,19.86-24.21,3.26-6-1.09-8.7-11.16-10.33v-9L962.27,714v8.7c-16.86,2.72-25.57,6.26-35.09,16.32-4.35,4.35-10.33,11.7-17.95,20.4,6.8,10.61,32.37,45.15,40,54.4,8.7,10.06,12,12.24,23.66,13.87Z"/><path class="cls-4" d="M976.69,836.91v-9.25c14.69-1.9,16.32-3,16.32-22.3v-53c0-18.23-1.36-19.31-14.15-21v-9a297.41,297.41,0,0,0,49.24-9.8v92.76c0,18.49,1.08,20.4,16.86,22.3v9.25ZM1008.51,696c-10.33,0-19.58-8.7-19.58-19.31,0-11.15,9.25-19.31,19.85-19.31,10.88,0,19.59,8.16,19.59,19.31A19.51,19.51,0,0,1,1008.51,696Z"/></g></g></svg>